<?xml version="1.0" standalone="no"?>
<!DOCTYPE svg PUBLIC "-//W3C//DTD SVG 20010904//EN"
 "http://www.w3.org/TR/2001/REC-SVG-20010904/DTD/svg10.dtd">
<svg version="1.0" xmlns="http://www.w3.org/2000/svg"
 width="300.000000pt" height="495.000000pt" viewBox="0 0 900.000000 895.000000"
 preserveAspectRatio="xMidYMid meet">

<g transform="translate(0.000000,895.000000) scale(0.100000,-0.100000)"
fill="#000000" stroke="none">
<path d="M4612 8941 c-49 -13 -106 -57 -131 -102 -27 -48 -39 -160 -43 -419
-3 -153 -1 -168 19 -205 40 -75 96 -109 196 -121 69 -8 155 16 201 56 46 40
67 98 74 198 l5 82 -97 0 -96 0 0 -60 c0 -33 -7 -76 -14 -95 -13 -29 -20 -35
-45 -35 -49 0 -64 34 -57 127 3 43 8 148 12 233 6 172 15 200 62 200 43 0 52
-17 52 -97 l0 -73 58 -1 c31 0 74 -2 95 -5 l39 -4 -4 94 c-3 86 -6 98 -33 137
-41 58 -103 89 -191 94 -38 2 -84 0 -102 -4z"/>
<path d="M3865 8894 c-49 -8 -92 -18 -96 -22 -3 -4 -11 -140 -18 -302 -6 -162
-15 -348 -18 -412 -7 -136 -18 -126 112 -107 l75 11 0 74 c0 82 -6 76 87 88
l42 6 15 -54 c9 -30 16 -59 16 -64 0 -21 22 -23 110 -11 60 8 90 16 90 25 0 7
-58 185 -130 396 -71 210 -130 384 -130 385 0 6 -69 0 -155 -13z m105 -347
c24 -92 40 -170 37 -173 -3 -4 -26 -9 -51 -11 l-45 -6 -3 189 c-2 104 -1 193
1 198 6 14 14 -12 61 -197z"/>
<path d="M5266 8857 c-3 -14 -26 -115 -51 -224 -25 -109 -64 -278 -86 -376
-23 -98 -39 -180 -36 -183 8 -9 168 -44 177 -39 4 2 22 74 41 160 18 85 36
160 39 165 4 7 23 7 59 -1 41 -9 51 -14 47 -27 -12 -37 -76 -325 -74 -328 5
-4 181 -44 183 -42 3 3 113 480 160 687 13 62 23 116 20 120 -5 9 -174 46
-179 40 -1 -2 -17 -69 -34 -148 -18 -79 -34 -146 -35 -148 -7 -6 -107 20 -107
28 0 7 57 253 66 280 4 14 -9 20 -68 33 -40 9 -83 19 -94 22 -17 4 -23 0 -28
-19z"/>
<path d="M3128 8726 c-104 -33 -188 -66 -188 -72 0 -7 33 -115 74 -240 40
-126 95 -300 121 -387 40 -130 51 -157 64 -152 9 4 101 33 204 65 104 32 190
60 192 62 8 7 -40 148 -50 148 -5 0 -57 -16 -115 -34 -58 -19 -108 -32 -111
-30 -13 7 -52 165 -43 173 5 5 48 21 96 35 l87 26 -15 48 c-8 26 -17 59 -21
75 -3 15 -11 27 -17 27 -7 0 -51 -13 -99 -29 -48 -16 -88 -27 -90 -23 -16 29
-47 145 -41 151 5 4 55 21 111 39 l102 33 -16 51 c-24 81 -32 98 -45 97 -7 -1
-97 -29 -200 -63z"/>
<path d="M2514 8471 c-46 -12 -304 -145 -304 -157 0 -2 49 -98 109 -212 59
-114 145 -278 190 -365 l83 -157 126 66 c204 107 232 136 232 236 0 63 -19
122 -59 182 -38 58 -73 79 -126 79 -49 0 -51 3 -30 31 9 11 15 41 15 69 0 59
-57 176 -100 207 -32 23 -92 32 -136 21z m35 -180 c10 -10 26 -39 36 -64 16
-43 16 -49 2 -71 -18 -27 -54 -43 -67 -29 -12 12 -83 154 -79 157 37 30 82 33
108 7z m139 -275 c32 -16 82 -107 82 -148 0 -19 -10 -35 -33 -52 -19 -15 -37
-26 -40 -26 -7 0 -107 193 -107 205 0 5 56 33 68 35 2 0 15 -6 30 -14z"/>
<path d="M6445 8437 c-34 -16 -96 -81 -120 -126 -40 -79 -31 -142 48 -315 52
-114 55 -166 14 -202 -20 -17 -35 -23 -50 -18 -58 17 -72 64 -37 122 11 18 20
37 20 42 0 8 -140 90 -154 90 -4 0 -20 -28 -36 -62 -66 -138 -19 -247 137
-324 73 -36 165 -36 227 0 51 30 80 66 101 127 26 72 19 133 -26 239 -74 171
-84 205 -74 237 15 41 57 53 93 26 36 -27 38 -44 11 -98 -12 -25 -21 -46 -18
-48 12 -10 141 -77 147 -77 15 0 62 100 68 143 9 63 -9 108 -64 159 -87 82
-212 119 -287 85z"/>
<path d="M7085 8003 c-48 -25 -70 -48 -221 -237 -116 -144 -147 -189 -160
-232 -25 -86 0 -159 81 -233 59 -54 106 -74 176 -74 91 0 122 24 282 223 172
214 190 244 191 319 0 93 -66 186 -168 232 -51 23 -140 24 -181 2z m163 -163
c25 -24 27 -33 10 -63 -19 -36 -286 -364 -309 -380 -27 -19 -59 -9 -79 26 -13
23 -12 28 10 60 32 45 145 191 162 208 8 8 40 46 71 86 74 91 94 101 135 63z"/>
<path d="M1472 7777 c-56 -56 -102 -106 -102 -110 0 -8 122 -170 198 -265 19
-23 33 -44 31 -47 -3 -2 -74 50 -159 115 l-155 120 -108 -107 -107 -108 295
-295 295 -295 65 65 65 65 -215 215 c-207 207 -257 264 -177 204 93 -71 463
-334 470 -334 4 0 26 19 49 43 l40 42 -173 240 c-95 132 -179 249 -185 260 -6
11 90 -80 213 -203 l223 -222 65 65 65 65 -295 295 -295 295 -103 -103z"/>
<path d="M7654 7471 c-61 -28 -389 -314 -418 -364 -34 -60 -40 -108 -22 -171
19 -65 92 -151 151 -177 53 -25 135 -24 183 0 44 23 137 97 137 110 0 11 -106
141 -115 141 -3 0 -32 -22 -65 -50 -33 -27 -69 -50 -81 -50 -31 0 -58 34 -50
64 7 29 370 346 396 346 24 0 50 -32 50 -62 0 -19 -14 -39 -52 -71 l-52 -45
63 -71 64 -71 48 41 c68 57 104 132 96 205 -7 67 -41 128 -101 181 -72 63
-155 79 -232 44z"/>
<path d="M725 6890 c-36 -55 -65 -103 -65 -108 0 -5 39 -46 88 -93 217 -210
472 -451 495 -470 l26 -20 52 77 52 77 -58 52 -58 51 31 43 c17 23 33 48 35
54 3 8 26 1 72 -21 37 -18 68 -32 70 -30 39 51 105 162 98 167 -4 4 -57 28
-118 53 -142 59 -597 246 -630 258 -25 9 -29 5 -90 -90z m347 -191 c68 -34
124 -63 126 -64 5 -4 -47 -85 -55 -85 -6 0 -224 182 -278 233 l-30 28 57 -25
c31 -14 112 -53 180 -87z"/>
<path d="M8095 6836 c-83 -38 -378 -217 -412 -249 -95 -89 -87 -239 19 -348
76 -78 171 -92 274 -39 32 17 69 39 81 48 l22 17 -46 75 c-25 41 -47 77 -49
79 -1 2 -29 -12 -61 -30 -84 -49 -93 -52 -120 -34 -19 13 -23 23 -21 48 3 30
16 39 208 153 113 67 215 125 227 128 15 5 28 0 42 -15 37 -40 23 -68 -61
-118 -21 -13 -38 -27 -38 -33 0 -7 66 -126 86 -156 5 -8 101 55 134 88 85 85
76 224 -22 335 -67 77 -167 96 -263 51z"/>
<path d="M3753 6507 c14 -21 14 -27 2 -43 -12 -17 -18 -17 -59 -6 -62 16 -114
16 -98 0 18 -18 15 -38 -5 -38 -25 0 -65 -37 -95 -90 -14 -25 -38 -55 -52 -67
-28 -24 -50 -92 -63 -188 -11 -87 -7 -127 17 -169 12 -20 20 -43 17 -51 -8
-20 -106 -46 -170 -46 -30 0 -76 9 -107 21 -62 24 -201 39 -270 28 -202 -30
-303 -39 -353 -29 -28 6 -74 13 -102 17 -27 3 -53 8 -57 10 -4 3 -66 9 -137
14 -104 7 -148 16 -217 40 -136 48 -230 70 -340 80 -55 5 -158 23 -230 40 -71
17 -148 35 -171 40 -23 5 -82 32 -130 60 -150 86 -239 110 -408 110 -108 0
-130 -9 -94 -39 13 -12 35 -23 49 -26 84 -19 105 -29 148 -73 24 -26 60 -56
78 -67 18 -11 65 -42 104 -69 67 -48 74 -50 157 -56 82 -7 95 -11 193 -65 183
-100 483 -245 550 -265 36 -10 88 -22 117 -26 41 -5 58 -13 86 -43 19 -20 86
-76 149 -124 127 -97 160 -109 333 -122 211 -15 207 -12 305 -255 106 -265
260 -526 449 -759 40 -49 47 -66 77 -192 18 -76 42 -156 53 -178 34 -66 136
-185 248 -288 110 -103 131 -127 253 -294 78 -107 224 -259 248 -259 8 0 44
-30 81 -68 36 -37 81 -79 99 -94 32 -26 32 -27 32 -118 0 -88 -1 -94 -36 -151
-34 -54 -36 -63 -31 -113 4 -39 17 -75 46 -123 22 -37 61 -126 86 -198 64
-176 118 -288 151 -310 40 -26 243 -41 283 -21 16 9 31 23 35 31 21 55 -12
168 -97 341 -59 121 -77 181 -78 258 -1 44 7 69 49 152 57 113 76 193 70 287
-3 56 -12 78 -73 188 -38 68 -71 126 -75 129 -3 3 -17 21 -30 40 -13 19 -60
72 -103 117 l-80 82 62 90 c78 114 84 139 41 174 -17 15 -48 34 -68 44 -20 10
-63 43 -94 73 -66 64 -75 96 -30 106 185 44 421 133 448 169 14 19 309 120
423 146 47 10 129 22 181 25 l95 7 66 -37 c120 -66 166 -77 344 -81 397 -10
480 -23 624 -102 173 -93 151 -87 259 -75 53 6 116 16 138 23 37 11 54 9 155
-15 184 -46 259 -27 354 88 70 86 63 150 -21 187 -39 18 -58 20 -119 14 -48
-4 -107 -1 -172 9 -186 28 -284 38 -331 31 -41 -5 -67 1 -187 43 -153 54 -255
94 -355 140 -100 46 -304 120 -386 141 -71 18 -188 21 -237 5 -9 -3 -59 8
-110 25 -109 37 -150 40 -272 22 -97 -14 -74 -17 -345 43 -92 21 -254 36 -383
36 -82 0 -130 5 -186 21 -54 15 -92 20 -133 16 -56 -5 -58 -4 -92 33 -44 49
-78 124 -80 176 -1 35 5 50 40 90 22 27 61 60 85 74 40 23 52 25 144 22 55 -2
125 -5 155 -5 89 -3 350 22 560 53 107 16 216 32 241 35 29 4 86 0 147 -11
l100 -17 29 -56 c30 -59 82 -95 127 -89 27 4 67 85 75 155 6 52 7 53 61 80 38
19 55 34 55 47 0 18 -6 19 -63 17 -41 -2 -84 4 -125 18 -47 15 -100 21 -217
24 -168 6 -335 32 -590 92 -142 34 -175 38 -355 50 -135 9 -309 42 -409 76
-49 17 -114 32 -144 34 -30 2 -59 8 -65 14 -17 17 8 59 48 82 33 20 35 24 35
71 0 46 4 54 39 87 21 20 53 47 70 60 23 17 29 26 21 36 -12 15 23 51 39 40 6
-3 11 -2 11 4 0 5 -5 13 -11 17 -10 6 -7 30 7 67 3 8 -7 29 -24 48 -16 19 -35
51 -43 72 -7 20 -18 37 -24 37 -7 0 -17 19 -24 41 -12 41 -13 42 -25 18 -15
-30 -43 -27 -73 9 -13 15 -23 21 -23 15 0 -18 -45 -16 -80 2 -16 8 -53 20 -82
26 -29 6 -68 20 -87 31 l-34 19 16 -24z"/>
<path d="M8420 6147 c-118 -46 -285 -109 -370 -140 -85 -32 -161 -61 -169 -66
-11 -7 0 -46 59 -202 40 -107 75 -197 79 -201 4 -4 39 5 78 20 l71 27 -39 105
c-21 58 -39 110 -39 116 0 9 52 33 151 69 13 5 23 -13 49 -82 18 -48 36 -91
39 -96 6 -6 137 36 148 47 2 2 -13 43 -32 92 -19 49 -35 92 -35 95 0 8 149 64
154 58 1 -2 17 -44 35 -94 45 -129 37 -122 118 -93 52 20 68 30 67 44 -3 26
-136 384 -143 384 -3 -1 -103 -38 -221 -83z"/>
<path d="M338 5955 c-165 -53 -218 -336 -79 -431 37 -25 434 -158 506 -170
110 -17 223 72 250 194 21 98 2 174 -58 229 -50 46 -48 45 -297 122 -227 70
-259 76 -322 56z m189 -211 c163 -49 294 -92 321 -106 17 -9 22 -20 22 -48 0
-32 -4 -39 -28 -49 -24 -10 -51 -4 -212 48 -102 32 -204 64 -228 71 -55 14
-85 43 -76 73 18 58 41 60 201 11z"/>
<path d="M8745 5498 c-447 -86 -670 -130 -673 -133 -3 -3 28 -178 33 -183 2
-3 305 55 336 64 12 3 18 -5 22 -32 11 -69 -5 -80 -173 -109 -107 -19 -160
-38 -160 -57 0 -7 7 -50 16 -95 l16 -81 35 15 c20 8 94 26 165 39 72 14 138
30 148 36 24 15 50 61 50 89 0 22 2 21 36 -13 21 -23 49 -40 70 -44 50 -9 136
4 185 29 94 48 105 105 63 337 -32 184 -13 168 -169 138z m43 -236 c4 -55 -7
-67 -69 -82 -81 -20 -109 -5 -122 67 l-6 31 77 15 c111 22 116 21 120 -31z"/>
<path d="M162 5210 c-46 -11 -89 -54 -107 -109 -16 -48 -57 -342 -49 -350 3
-4 679 -92 789 -103 l30 -3 12 90 c6 50 9 93 5 96 -4 3 -83 15 -176 27 -93 12
-170 23 -172 25 -2 2 -1 18 2 36 11 54 37 63 140 51 230 -26 229 -27 239 67 3
37 9 78 12 90 4 20 2 22 -29 17 -19 -4 -94 2 -166 11 -73 9 -145 14 -161 10
-28 -6 -74 -47 -83 -75 -4 -9 -12 1 -23 27 -21 52 -60 78 -139 92 -67 12 -77
12 -124 1z m182 -209 c15 -13 23 -90 11 -102 -6 -7 -183 15 -190 23 -13 12 16
89 36 96 28 11 123 -1 143 -17z"/>
<path d="M8440 4756 c-166 -46 -291 -190 -319 -363 -24 -152 42 -319 162 -412
189 -145 440 -124 607 52 17 18 47 66 68 106 36 74 37 77 37 190 0 110 -2 120
-32 184 -57 120 -163 210 -287 243 -62 17 -175 17 -236 0z"/>
<path d="M171 4439 c-146 -28 -177 -99 -160 -363 5 -77 11 -141 12 -141 1 -1
128 6 282 16 154 9 339 20 410 24 72 4 131 8 131 8 1 1 0 44 -3 95 l-6 94
-146 -7 c-80 -3 -153 -9 -163 -11 -14 -4 -17 6 -23 63 -8 93 -21 137 -51 172
-44 53 -163 74 -283 50z m169 -199 c13 -13 20 -33 20 -60 l0 -40 -59 0 c-32 0
-79 -3 -105 -6 l-46 -7 0 45 c0 66 26 84 123 87 35 1 52 -4 67 -19z"/>
<path d="M899 3646 c-2 -2 -98 -7 -214 -10 -115 -4 -275 -11 -355 -16 -80 -5
-162 -10 -182 -10 -30 0 -38 -4 -38 -18 0 -29 58 -257 101 -402 486 -1604
1843 -2815 3479 -3104 311 -55 485 -70 810 -70 305 1 470 14 740 59 641 108
1220 341 1764 709 801 542 1421 1356 1722 2261 56 167 132 441 148 531 l5 32
-112 6 c-98 6 -471 21 -657 28 l-65 2 -18 -70 c-143 -546 -389 -1028 -738
-1444 -588 -700 -1414 -1153 -2329 -1277 -195 -26 -748 -26 -935 0 -1106 157
-2044 760 -2627 1691 -195 311 -369 726 -452 1079 -6 24 -32 37 -47 23z"/>
</g>
</svg>
