<?xml version="1.0" standalone="no"?>
<!DOCTYPE svg PUBLIC "-//W3C//DTD SVG 20010904//EN"
 "http://www.w3.org/TR/2001/REC-SVG-20010904/DTD/svg10.dtd">
<svg version="1.0" xmlns="http://www.w3.org/2000/svg"
 width="850.000000pt" height="1275.000000pt" viewBox="0 0 850.000000 1275.000000"
 preserveAspectRatio="xMidYMid meet">

<g transform="translate(0.000000,1275.000000) scale(0.100000,-0.100000)"
fill="#000000" stroke="none">
<path d="M4810 11200 c-8 -5 -10 -10 -5 -10 6 0 17 5 25 10 8 5 11 10 5 10 -5
0 -17 -5 -25 -10z"/>
<path d="M5123 11102 l32 -61 22 21 c13 12 23 25 23 29 0 6 -31 17 -46 17 -3
0 -19 12 -34 27 l-29 28 32 -61z"/>
<path d="M4712 11104 c-18 -15 -29 -31 -25 -37 3 -7 3 -9 -2 -5 -12 11 -35
-11 -35 -34 0 -10 -4 -17 -9 -14 -5 3 -14 -1 -20 -8 -10 -12 -2 -17 43 -30 30
-9 59 -16 64 -16 8 0 22 143 17 167 0 1 -15 -9 -33 -23z"/>
<path d="M5072 10945 c-40 -37 -72 -71 -72 -75 0 -4 42 -25 92 -46 51 -21 96
-40 100 -42 22 -10 -10 178 -36 213 -12 17 -19 12 -84 -50z"/>
<path d="M4754 10908 c3 -13 8 -45 11 -73 9 -72 26 -136 35 -133 12 4 172 159
168 163 -7 6 -194 65 -206 65 -8 0 -11 -9 -8 -22z"/>
<path d="M5200 10727 c0 -40 -17 -118 -35 -159 -4 -10 -3 -18 3 -18 18 0 106
80 129 117 20 34 21 38 5 49 -23 16 -91 54 -97 54 -3 0 -5 -19 -5 -43z"/>
<path d="M4985 10670 c-16 -16 -25 -33 -22 -37 7 -6 67 51 67 63 0 12 -19 1
-45 -26z"/>
<path d="M4736 10630 c-55 -52 -71 -78 -40 -66 21 8 54 -11 54 -30 0 -12 6
-15 23 -10 14 3 34 -2 52 -14 30 -20 65 -26 65 -12 0 4 -7 18 -16 30 -9 13
-31 53 -49 89 l-34 65 -55 -52z"/>
<path d="M5060 10660 c0 -5 5 -10 10 -10 6 0 10 5 10 10 0 6 -4 10 -10 10 -5
0 -10 -4 -10 -10z"/>
<path d="M5035 10633 c-4 -13 -11 -21 -15 -18 -5 3 -11 1 -14 -4 -4 -5 -2 -12
3 -15 12 -8 44 30 38 46 -4 8 -8 5 -12 -9z"/>
<path d="M4591 10618 c7 -16 16 -28 20 -28 4 0 15 -7 24 -16 9 -9 19 -14 22
-10 4 3 4 7 2 9 -2 1 -21 18 -42 37 -38 34 -38 34 -26 8z"/>
<path d="M4585 10539 c-16 -5 -43 -20 -60 -34 -25 -20 -29 -31 -29 -66 1 -33
9 -48 41 -82 61 -65 88 -120 126 -267 20 -74 43 -155 53 -180 9 -25 20 -74 24
-110 4 -36 16 -103 25 -150 20 -104 14 -223 -21 -425 -51 -290 -55 -329 -55
-495 1 -183 -9 -254 -43 -332 -41 -92 -78 -212 -66 -216 17 -6 11 -22 -7 -23
-11 0 -13 -3 -5 -6 16 -6 16 -23 -1 -23 -18 0 -37 -92 -37 -176 0 -39 -6 -93
-14 -120 -16 -55 -23 -106 -31 -213 -6 -67 -5 -73 11 -67 17 6 17 6 1 -12 -12
-13 -14 -21 -6 -29 8 -8 8 -13 0 -17 -6 -4 -11 -23 -11 -41 0 -28 3 -33 18
-29 19 6 -5 -16 -86 -81 -28 -22 -55 -51 -61 -65 -17 -43 -42 -141 -56 -220
-8 -41 -19 -100 -25 -130 -7 -30 -9 -70 -6 -88 2 -18 -1 -50 -9 -71 -7 -21
-16 -68 -20 -105 -7 -61 -11 -70 -56 -117 -27 -28 -46 -56 -43 -61 4 -6 23 -8
43 -6 20 3 56 2 81 -2 42 -7 40 -8 -27 -9 -45 -1 -73 -5 -73 -12 0 -6 -7 -4
-15 4 -17 18 -99 37 -156 37 -30 0 -47 7 -66 26 -25 25 -25 30 -21 108 3 46
11 92 17 104 13 24 14 132 2 243 -6 54 -15 86 -30 108 -15 21 -25 54 -30 101
-5 49 -14 78 -29 98 -62 77 -102 132 -102 140 0 5 -7 16 -16 23 -9 7 -20 24
-25 37 -5 13 -13 21 -18 18 -5 -3 -22 1 -37 9 -37 19 -110 19 -161 1 -45 -16
-143 -83 -143 -97 0 -16 -64 -49 -83 -43 -16 5 -17 3 -5 -15 11 -17 10 -22 -4
-33 -10 -7 -22 -25 -27 -40 -6 -15 -26 -38 -45 -50 -20 -13 -36 -28 -36 -34 0
-6 -9 -22 -19 -36 -11 -13 -21 -33 -23 -43 -1 -11 -11 -29 -20 -39 -10 -11
-18 -25 -18 -30 0 -6 4 -5 9 3 11 17 34 4 27 -15 -3 -8 8 -51 24 -96 16 -46
31 -94 34 -108 8 -38 86 -147 158 -221 85 -88 103 -126 102 -213 -1 -37 -6
-78 -12 -90 -5 -11 -18 -40 -27 -63 -10 -24 -22 -40 -28 -36 -6 4 -8 0 -4 -10
3 -10 2 -17 -3 -17 -5 0 -20 -16 -34 -36 -16 -24 -26 -31 -30 -22 -3 7 -4 4
-1 -8 6 -23 -37 -70 -53 -60 -6 3 -12 3 -14 -1 -1 -5 -22 -25 -46 -45 -23 -21
-39 -38 -35 -38 5 -1 -10 -7 -32 -15 -47 -17 -60 -9 -25 14 14 9 54 45 90 80
57 56 55 61 -3 10 -10 -9 -39 -23 -65 -30 -36 -10 -62 -29 -125 -93 -95 -97
-117 -141 -123 -244 -3 -57 -1 -68 5 -44 5 19 14 39 20 45 16 16 26 0 11 -18
-7 -8 -10 -25 -6 -40 4 -14 2 -25 -3 -25 -15 0 1 -170 19 -195 37 -51 38 -425
2 -550 -12 -39 -32 -90 -45 -115 -14 -25 -28 -72 -31 -105 -4 -33 -11 -96 -16
-141 -8 -79 -34 -180 -51 -199 -5 -5 -9 -17 -9 -27 0 -10 -6 -18 -12 -19 -7 0
-27 -2 -45 -3 -23 -3 -33 1 -36 13 -3 11 -5 9 -6 -6 -1 -26 -32 -34 -116 -32
l-59 2 -68 -74 c-37 -41 -69 -82 -72 -91 -8 -34 52 -15 87 26 16 18 16 16 -1
-14 -11 -19 -32 -69 -45 -110 -52 -159 -45 -167 45 -45 36 48 70 85 80 85 10
0 56 -23 103 -50 47 -28 90 -48 95 -45 18 11 10 31 -25 65 -40 39 -43 50 -15
50 52 0 128 42 185 100 31 33 90 88 130 121 84 69 144 150 184 246 15 38 43
99 61 136 32 64 33 71 22 112 -9 34 -8 78 4 207 10 109 13 203 8 285 -4 66 -4
136 0 155 l6 34 88 -30 c66 -22 114 -31 202 -37 79 -5 141 -15 199 -33 67 -21
103 -26 188 -26 113 0 215 12 305 37 l58 16 82 -33 c46 -18 102 -41 125 -51
23 -11 46 -19 52 -19 30 0 218 -83 254 -112 23 -19 52 -40 65 -47 13 -7 28
-26 34 -42 11 -33 24 -36 48 -14 15 14 20 14 46 0 16 -8 39 -15 50 -15 13 0
24 -8 27 -20 7 -26 37 -26 71 1 28 22 35 45 12 36 -8 -3 -17 1 -20 8 -3 9 -12
12 -22 8 -13 -5 -16 -3 -11 10 3 9 2 19 -3 22 -6 4 -10 18 -10 33 0 19 -3 23
-9 13 -13 -20 -30 -5 -25 22 2 12 2 16 -2 10 -8 -18 -27 -16 -21 2 4 10 -13
24 -58 46 -65 32 -86 55 -40 43 18 -5 25 -2 25 9 0 10 7 13 20 10 11 -3 20 -3
20 1 0 6 -58 38 -62 34 -2 -2 -13 4 -25 13 -13 9 -20 19 -16 22 3 4 1 8 -5 8
-7 1 -15 3 -19 4 -5 1 -23 6 -41 10 -18 4 -37 16 -43 26 -5 11 -16 19 -25 19
-8 0 -17 7 -20 15 -4 8 -13 15 -21 15 -8 0 -11 4 -8 10 3 5 -10 19 -29 31 -20
12 -36 25 -36 30 0 4 -7 6 -15 3 -31 -12 -11 13 55 68 l68 57 52 -69 c28 -39
55 -70 60 -70 4 0 55 -47 112 -105 77 -80 124 -118 189 -155 96 -56 128 -61
173 -27 17 13 60 41 96 62 74 44 146 115 195 189 51 79 102 121 175 145 36 12
73 28 83 36 14 10 26 11 48 3 37 -13 85 13 74 40 -3 9 -3 13 1 10 13 -14 64
56 64 89 0 25 -19 30 -38 11 -9 -9 -12 -7 -12 12 0 20 -2 22 -10 10 -7 -11
-10 -12 -10 -2 0 20 -80 12 -104 -10 -24 -22 -35 -15 -12 7 17 18 22 40 7 30
-5 -3 -12 -1 -15 4 -3 5 8 14 24 20 42 14 38 23 -7 16 -58 -10 -85 -25 -72
-42 9 -11 0 -13 -49 -13 -50 0 -63 3 -72 19 -15 29 -15 28 48 24 43 -2 53 -1
40 7 -10 6 -31 12 -48 13 -28 2 -44 17 -18 17 6 0 8 3 5 7 -4 4 -22 -7 -40
-23 -17 -17 -45 -36 -60 -44 -15 -8 -35 -30 -43 -49 -9 -20 -20 -45 -26 -55
-9 -16 -7 -18 11 -13 15 4 21 1 19 -8 -2 -8 6 -21 17 -30 17 -14 17 -16 3 -11
-11 3 -18 0 -18 -8 0 -8 -6 -17 -12 -20 -7 -3 0 -4 15 -2 17 2 26 -1 24 -8 -2
-6 -11 -10 -21 -8 -9 2 -16 -4 -16 -11 0 -8 -7 -21 -17 -28 -15 -13 -15 -12
-5 7 14 27 3 39 -15 16 -10 -12 -16 -14 -19 -4 -3 6 -13 12 -22 12 -11 0 -13
3 -6 8 18 11 12 41 -8 48 -13 4 -27 -3 -43 -20 -17 -18 -20 -26 -10 -26 8 0
15 -7 15 -15 0 -8 -7 -15 -16 -15 -8 0 -12 5 -8 11 4 8 -1 9 -16 4 -15 -5 -20
-4 -16 4 5 7 -2 11 -18 11 -14 0 -26 -4 -26 -9 0 -16 -37 -19 -69 -5 -18 8
-61 41 -97 75 -35 34 -67 59 -71 56 -3 -4 -15 1 -26 10 -11 10 -17 13 -14 6 4
-6 3 -14 -3 -18 -5 -3 -10 -1 -10 5 0 7 -18 32 -40 57 -22 25 -40 52 -40 59 0
8 -4 14 -9 14 -5 0 -15 17 -22 37 -6 21 -23 60 -36 88 -14 27 -32 66 -41 85
-9 19 -30 54 -45 78 -16 24 -27 45 -25 48 6 6 66 -78 78 -110 5 -15 14 -24 20
-21 7 4 7 12 0 25 -12 23 -13 40 -1 40 5 0 15 -17 22 -37 6 -21 16 -44 21 -50
9 -12 16 -67 18 -135 0 -42 14 -34 32 20 9 26 24 66 32 89 10 28 15 74 15 140
-1 54 -1 118 -1 143 -1 25 3 81 7 126 6 65 4 91 -9 132 -18 52 -14 136 6 148
5 3 6 15 2 27 -6 20 -12 85 -14 160 0 15 -1 37 -1 50 -1 12 -3 69 -5 127 -6
169 -20 318 -31 332 -6 7 -13 25 -17 41 -3 15 -11 27 -16 27 -5 0 -7 7 -4 15
4 8 2 15 -3 15 -5 0 -9 9 -9 20 0 11 4 20 8 20 4 0 8 37 8 83 0 88 34 453 50
527 5 25 17 70 28 100 47 136 57 222 56 480 -1 136 -6 274 -13 310 -6 36 -20
181 -31 323 -16 208 -18 273 -9 330 6 39 9 88 6 110 -3 23 1 56 9 81 18 49 13
90 -15 137 l-21 34 0 -39 c0 -22 -3 -36 -7 -33 -4 4 -6 34 -5 68 1 41 -3 68
-15 85 -9 14 -17 37 -19 51 -1 15 -16 37 -33 50 -22 17 -33 36 -37 64 -4 21
-11 39 -16 39 -6 0 -7 7 -4 16 4 11 -1 18 -14 21 -11 3 -20 12 -20 19 0 8 -7
17 -15 20 -8 4 -15 12 -15 19 0 7 -11 15 -25 17 -17 4 -25 1 -25 -8 0 -8 -4
-14 -10 -14 -10 0 -14 13 -11 36 1 6 -6 17 -14 24 -10 9 -15 9 -15 1 0 -6 -9
-11 -20 -11 -16 0 -20 -7 -20 -31 0 -26 -2 -29 -14 -19 -8 6 -16 26 -18 43 -3
35 -16 41 -63 26z m454 -606 c0 -35 -1 -36 -10 -14 -5 14 -7 31 -5 38 10 24
16 13 15 -24z m-429 -1842 c0 -6 -4 -13 -10 -16 -5 -3 -10 1 -10 9 0 9 5 16
10 16 6 0 10 -4 10 -9z m0 -51 c0 -5 -4 -10 -10 -10 -5 0 -10 5 -10 10 0 6 5
10 10 10 6 0 10 -4 10 -10z m-733 -1142 c-3 -8 -6 -5 -6 6 -1 11 2 17 5 13 3
-3 4 -12 1 -19z m43 -97 l-1 -26 -14 25 c-18 32 -18 41 0 34 8 -4 15 -18 15
-33z m684 -360 c49 -23 170 -137 178 -169 5 -19 4 -21 -8 -11 -8 6 -14 17 -14
24 0 23 -91 98 -121 99 -16 1 -29 4 -29 8 0 8 -64 30 -76 26 -5 -1 -19 3 -31
10 -13 7 -23 10 -23 6 0 -3 -7 -1 -15 6 -16 13 -128 17 -132 4 -4 -11 -115 -7
-158 7 -26 7 153 16 264 13 93 -3 134 -9 165 -23z m-529 -3 c17 -1 38 -8 47
-16 14 -12 37 -13 118 -8 69 5 100 4 100 -3 0 -6 -6 -11 -12 -12 -7 0 -42 -3
-78 -5 -36 -3 -92 0 -125 5 -33 6 -93 15 -132 22 -91 14 -99 33 -10 24 34 -3
76 -6 92 -7z m615 -198 c0 -5 -2 -10 -4 -10 -3 0 -8 5 -11 10 -3 6 -1 10 4 10
6 0 11 -4 11 -10z m309 -50 c0 -10 -3 -8 -9 5 -12 27 -12 43 0 25 5 -8 9 -22
9 -30z m-6 -165 c-3 -9 -8 -14 -10 -11 -3 3 -2 9 2 15 9 16 15 13 8 -4z
m-2082 -178 c-10 -9 -11 -8 -5 6 3 10 9 15 12 12 3 -3 0 -11 -7 -18z m2969
-11 c0 -10 -28 -7 -35 4 -11 18 5 31 21 16 8 -8 14 -17 14 -20z m-1593 -18
c-3 -8 -6 -5 -6 6 -1 11 2 17 5 13 3 -3 4 -12 1 -19z m1362 -12 c9 -11 9 -16
0 -22 -8 -4 -9 -3 -5 4 10 16 0 15 -29 -4 -31 -20 -33 -9 -2 17 12 10 23 18
23 19 1 0 7 -6 13 -14z m-1379 -6 c0 -5 -4 -10 -10 -10 -5 0 -10 5 -10 10 0 6
5 10 10 10 6 0 10 -4 10 -10z m1415 -110 c8 -13 -5 -13 -25 0 -13 8 -13 10 2
10 9 0 20 -4 23 -10z m-195 -10 c0 -5 -4 -10 -10 -10 -5 0 -10 5 -10 10 0 6 5
10 10 10 6 0 10 -4 10 -10z m170 -10 c0 -5 -4 -10 -10 -10 -5 0 -10 5 -10 10
0 6 5 10 10 10 6 0 10 -4 10 -10z m165 -20 c-3 -5 -10 -10 -16 -10 -5 0 -9 5
-9 10 0 6 7 10 16 10 8 0 12 -4 9 -10z m-1155 -33 c0 -2 -12 -14 -27 -28 l-28
-24 24 28 c23 25 31 32 31 24z m-430 -17 c0 -5 -2 -10 -4 -10 -3 0 -8 5 -11
10 -3 6 -1 10 4 10 6 0 11 -4 11 -10z m230 -10 c0 -5 -5 -10 -11 -10 -5 0 -7
5 -4 10 3 6 8 10 11 10 2 0 4 -4 4 -10z m-35 -10 c3 -5 1 -10 -4 -10 -6 0 -11
5 -11 10 0 6 2 10 4 10 3 0 8 -4 11 -10z m20 -70 c3 -5 1 -10 -4 -10 -6 0 -11
5 -11 10 0 6 2 10 4 10 3 0 8 -4 11 -10z m1153 -35 c-3 -3 -9 2 -12 12 -6 14
-5 15 5 6 7 -7 10 -15 7 -18z m-928 -5 c0 -5 -5 -10 -11 -10 -5 0 -7 5 -4 10
3 6 8 10 11 10 2 0 4 -4 4 -10z m-350 -4 c0 -3 -4 -8 -10 -11 -5 -3 -10 -1
-10 4 0 6 5 11 10 11 6 0 10 -2 10 -4z m150 -46 c0 -5 -2 -10 -4 -10 -3 0 -8
5 -11 10 -3 6 -1 10 4 10 6 0 11 -4 11 -10z m1035 0 c-3 -5 -13 -10 -21 -10
-8 0 -14 5 -14 10 0 6 9 10 21 10 11 0 17 -4 14 -10z m35 -20 c0 -5 -2 -10 -4
-10 -3 0 -8 5 -11 10 -3 6 -1 10 4 10 6 0 11 -4 11 -10z m-50 -44 c0 -2 -7 -9
-15 -16 -13 -11 -14 -10 -9 4 5 14 24 23 24 12z m-720 -38 c0 -18 -2 -20 -9
-8 -6 8 -7 18 -5 22 9 14 14 9 14 -14z m50 -38 c0 -5 -2 -10 -4 -10 -3 0 -8 5
-11 10 -3 6 -1 10 4 10 6 0 11 -4 11 -10z m185 -220 c3 -5 1 -10 -4 -10 -6 0
-11 5 -11 10 0 6 2 10 4 10 3 0 8 -4 11 -10z m85 -39 c0 -12 -20 -25 -27 -18
-7 7 6 27 18 27 5 0 9 -4 9 -9z m-2167 -58 c4 -19 2 -33 -3 -33 -6 0 -10 17
-10 37 0 43 5 41 13 -4z m-473 -769 c-18 -21 -24 -10 -9 18 8 14 14 18 17 10
2 -7 -2 -19 -8 -28z m33 6 c3 -12 0 -20 -8 -20 -8 0 -11 8 -8 20 3 11 7 20 8
20 1 0 5 -9 8 -20z m-63 -133 c0 -2 -10 -12 -22 -23 l-23 -19 19 23 c18 21 26
27 26 19z"/>
<path d="M5090 10514 c-19 -9 -68 -18 -107 -21 -40 -3 -73 -9 -73 -12 0 -10
63 -49 90 -56 29 -7 91 30 128 76 27 33 16 37 -38 13z"/>
<path d="M3200 7384 c0 -6 7 -19 15 -30 8 -10 14 -14 14 -9 0 6 -6 19 -14 29
-8 11 -15 15 -15 10z"/>
<path d="M3326 6296 c-18 -19 -50 -65 -70 -102 l-36 -67 36 34 c37 35 100 119
89 119 -3 0 2 11 11 25 23 35 11 31 -30 -9z"/>
<path d="M4910 6082 c0 -22 23 -72 33 -72 7 0 7 4 -1 12 -7 7 -12 22 -12 34 0
13 -4 26 -10 29 -5 3 -10 2 -10 -3z"/>
<path d="M5953 5962 c4 -5 -3 -12 -15 -15 -12 -4 -19 -9 -16 -12 3 -3 18 -3
32 1 27 6 31 24 6 32 -7 3 -10 0 -7 -6z"/>
<path d="M5799 5906 c13 -5 29 -5 42 0 17 8 13 9 -21 9 -34 0 -38 -1 -21 -9z"/>
<path d="M6010 5892 c0 -4 -12 -8 -27 -7 -14 0 -28 -6 -31 -14 -3 -10 0 -12
13 -7 10 3 24 1 31 -5 8 -6 14 -8 14 -4 0 4 7 2 15 -5 12 -10 15 -10 15 3 0
23 -11 47 -21 47 -5 0 -9 -4 -9 -8z"/>
<path d="M5002 5866 c7 -8 15 -12 17 -11 5 6 -10 25 -20 25 -5 0 -4 -6 3 -14z"/>
<path d="M5030 5843 c0 -5 13 -17 28 -27 l27 -19 -24 26 c-26 28 -31 32 -31
20z"/>
<path d="M5395 5670 c-13 -5 -14 -9 -5 -9 8 0 24 4 35 9 13 5 14 9 5 9 -8 0
-24 -4 -35 -9z"/>
<path d="M4908 5343 c6 -2 18 -2 25 0 6 3 1 5 -13 5 -14 0 -19 -2 -12 -5z"/>
<path d="M2700 4290 c0 -5 5 -10 10 -10 6 0 10 5 10 10 0 6 -4 10 -10 10 -5 0
-10 -4 -10 -10z"/>
<path d="M2570 4276 c0 -9 30 -14 35 -6 4 6 -3 10 -14 10 -12 0 -21 -2 -21 -4z"/>
<path d="M3322 3598 c3 -7 18 -14 34 -16 l29 -2 -25 14 c-31 19 -43 20 -38 4z"/>
<path d="M3607 3585 c-7 -16 8 -29 23 -20 10 6 2 35 -10 35 -4 0 -10 -7 -13
-15z"/>
<path d="M4650 3260 c20 -13 33 -13 25 0 -3 6 -14 10 -23 10 -15 0 -15 -2 -2
-10z"/>
<path d="M40 3099 c0 -5 5 -7 10 -4 6 3 10 8 10 11 0 2 -4 4 -10 4 -5 0 -10
-5 -10 -11z"/>
<path d="M2518 3024 c-51 -26 -58 -38 -32 -48 30 -11 50 -6 72 19 12 14 26 25
32 25 5 0 7 7 4 15 -8 20 -20 18 -76 -11z"/>
<path d="M618 2993 c7 -3 16 -2 19 1 4 3 -2 6 -13 5 -11 0 -14 -3 -6 -6z"/>
<path d="M2225 2990 c3 -5 18 -10 33 -10 21 0 24 2 12 10 -20 13 -53 13 -45 0z"/>
<path d="M530 2960 c0 -5 -19 -10 -42 -10 l-43 -1 29 -25 c22 -19 35 -24 55
-19 29 7 68 39 41 33 -10 -2 -14 3 -12 15 2 10 -3 17 -13 17 -8 0 -15 -4 -15
-10z"/>
<path d="M580 2960 c0 -5 5 -10 11 -10 5 0 7 5 4 10 -3 6 -8 10 -11 10 -2 0
-4 -4 -4 -10z"/>
<path d="M1640 2883 c-50 -9 -46 -24 5 -21 28 2 49 8 48 13 -2 12 -19 14 -53
8z"/>
<path d="M1755 2860 c3 -5 10 -10 16 -10 5 0 9 5 9 10 0 6 -7 10 -16 10 -8 0
-12 -4 -9 -10z"/>
<path d="M2790 2545 c-8 -9 -8 -15 -2 -15 12 0 26 19 19 26 -2 2 -10 -2 -17
-11z"/>
<path d="M4868 2542 c-43 -4 -52 -22 -10 -21 32 1 70 14 56 20 -5 2 -26 3 -46
1z"/>
<path d="M4945 2540 c3 -5 12 -7 20 -3 21 7 19 13 -6 13 -11 0 -18 -4 -14 -10z"/>
<path d="M4275 2340 c3 -5 8 -10 11 -10 2 0 4 5 4 10 0 6 -5 10 -11 10 -5 0
-7 -4 -4 -10z"/>
<path d="M4224 2315 c22 -17 46 -20 46 -6 0 10 -25 21 -48 21 -15 -1 -14 -3 2
-15z"/>
<path d="M4314 2316 c-3 -9 -12 -16 -20 -16 -8 0 -14 -4 -14 -10 0 -5 4 -10 9
-10 5 0 17 -7 26 -17 14 -14 18 -14 26 -2 6 10 9 11 9 1 0 -7 -12 -18 -26 -24
-24 -11 -25 -13 -8 -25 10 -7 27 -13 39 -13 23 0 65 38 65 58 0 15 -17 16 -22
1 -3 -10 -48 22 -48 35 0 4 -7 14 -15 22 -13 14 -16 14 -21 0z m11 -26 c-3 -5
-12 -10 -18 -10 -7 0 -6 4 3 10 19 12 23 12 15 0z m55 -56 c0 -8 -4 -12 -10
-9 -5 3 -10 1 -10 -5 0 -6 -5 -8 -11 -5 -6 5 -4 12 8 21 23 17 23 17 23 -2z"/>
<path d="M3810 2180 c20 -13 33 -13 25 0 -3 6 -14 10 -23 10 -15 0 -15 -2 -2
-10z"/>
<path d="M3688 2173 c7 -3 16 -2 19 1 4 3 -2 6 -13 5 -11 0 -14 -3 -6 -6z"/>
<path d="M6038 2173 c-21 -2 -38 -8 -38 -13 0 -17 16 -17 65 1 50 17 45 19
-27 12z"/>
<path d="M5250 2139 c0 -5 5 -7 10 -4 6 3 10 8 10 11 0 2 -4 4 -10 4 -5 0 -10
-5 -10 -11z"/>
<path d="M2710 2091 c0 -6 5 -13 10 -16 6 -3 10 1 10 9 0 9 -4 16 -10 16 -5 0
-10 -4 -10 -9z"/>
<path d="M30 2030 c-11 -7 -5 -8 20 -4 43 8 51 14 19 14 -13 0 -31 -5 -39 -10z"/>
<path d="M7315 1990 c-8 -13 5 -13 25 0 13 8 13 10 -2 10 -9 0 -20 -4 -23 -10z"/>
<path d="M2214 1905 c-4 -8 -14 -15 -24 -15 -9 0 -32 -5 -50 -11 l-33 -12 24
-13 c13 -7 27 -10 31 -8 5 3 8 -1 8 -9 0 -18 42 -46 63 -43 29 4 30 15 6 35
-14 11 -20 23 -15 28 5 4 11 2 13 -4 6 -18 23 -16 23 2 0 8 -4 15 -10 15 -5 0
-10 11 -10 25 0 27 -17 34 -26 10z m-4 -55 c0 -5 -5 -10 -11 -10 -5 0 -7 5 -4
10 3 6 8 10 11 10 2 0 4 -4 4 -10z"/>
<path d="M6765 1910 c3 -5 13 -10 21 -10 8 0 12 5 9 10 -3 6 -13 10 -21 10 -8
0 -12 -4 -9 -10z"/>
<path d="M2305 1890 c3 -5 14 -10 23 -10 15 0 15 2 2 10 -20 13 -33 13 -25 0z"/>
<path d="M1615 1840 c-3 -5 1 -10 9 -10 8 0 18 5 21 10 3 6 -1 10 -9 10 -8 0
-18 -4 -21 -10z"/>
<path d="M3156 1812 c-3 -6 3 -12 15 -15 12 -3 19 -1 16 6 -5 15 -24 20 -31 9z"/>
<path d="M145 1760 c-10 -11 -13 -20 -8 -20 13 0 38 29 31 35 -3 3 -13 -4 -23
-15z"/>
<path d="M3170 1760 c0 -5 5 -10 10 -10 6 0 10 5 10 10 0 6 -4 10 -10 10 -5 0
-10 -4 -10 -10z"/>
<path d="M3200 1710 c0 -5 5 -10 11 -10 5 0 7 5 4 10 -3 6 -8 10 -11 10 -2 0
-4 -4 -4 -10z"/>
<path d="M1460 1670 c0 -5 5 -10 10 -10 6 0 10 5 10 10 0 6 -4 10 -10 10 -5 0
-10 -4 -10 -10z"/>
<path d="M2987 1634 c-4 -4 -4 -10 -1 -15 6 -10 34 0 34 12 0 10 -24 12 -33 3z"/>
<path d="M3880 1620 c0 -5 12 -10 28 -9 24 0 25 1 7 9 -27 12 -35 12 -35 0z"/>
<path d="M1705 1600 c-3 -6 1 -13 10 -16 19 -8 30 0 20 15 -8 14 -22 14 -30 1z"/>
<path d="M1078 1593 c7 -3 16 -2 19 1 4 3 -2 6 -13 5 -11 0 -14 -3 -6 -6z"/>
<path d="M1437 1589 c7 -7 15 -10 18 -7 3 3 -2 9 -12 12 -14 6 -15 5 -6 -5z"/>
<path d="M1818 1593 c7 -3 16 -2 19 1 4 3 -2 6 -13 5 -11 0 -14 -3 -6 -6z"/>
<path d="M1835 1560 c-3 -5 1 -10 9 -10 9 0 16 5 16 10 0 6 -4 10 -9 10 -6 0
-13 -4 -16 -10z"/>
<path d="M465 1540 c12 -13 29 -19 49 -18 l31 1 -33 4 c-28 4 -31 7 -21 19 9
12 7 14 -16 14 -27 0 -28 0 -10 -20z"/>
<path d="M2215 1540 c3 -5 11 -10 16 -10 6 0 7 5 4 10 -3 6 -11 10 -16 10 -6
0 -7 -4 -4 -10z"/>
<path d="M1085 1500 c3 -5 8 -10 11 -10 2 0 4 5 4 10 0 6 -5 10 -11 10 -5 0
-7 -4 -4 -10z"/>
<path d="M1316 1497 c3 -10 9 -15 12 -12 3 3 0 11 -7 18 -10 9 -11 8 -5 -6z"/>
<path d="M5615 1470 c3 -5 8 -10 11 -10 2 0 4 5 4 10 0 6 -5 10 -11 10 -5 0
-7 -4 -4 -10z"/>
<path d="M8300 1459 c0 -5 5 -7 10 -4 6 3 10 8 10 11 0 2 -4 4 -10 4 -5 0 -10
-5 -10 -11z"/>
<path d="M565 1450 c-3 -5 3 -10 14 -10 12 0 21 5 21 10 0 6 -6 10 -14 10 -8
0 -18 -4 -21 -10z"/>
<path d="M627 1431 c3 -14 -3 -20 -24 -26 -15 -5 -32 -7 -36 -6 -5 1 -6 -8 -2
-19 4 -11 2 -20 -4 -20 -6 0 -11 6 -11 13 0 8 -15 12 -45 12 -40 -1 -45 2 -45
22 0 13 -4 23 -10 23 -5 0 -10 -6 -10 -14 0 -16 -41 -29 -64 -20 -14 5 -15 2
-6 -22 9 -23 9 -27 -1 -16 -15 14 -53 17 -44 3 11 -20 109 -40 147 -32 20 5
47 6 61 4 15 -3 30 1 38 12 31 38 56 62 68 66 7 3 9 12 6 22 -9 23 -24 22 -18
-2z m-194 -58 c-7 -2 -19 -2 -25 0 -7 3 -2 5 12 5 14 0 19 -2 13 -5z"/>
<path d="M1960 1440 c0 -5 5 -10 11 -10 5 0 7 5 4 10 -3 6 -8 10 -11 10 -2 0
-4 -4 -4 -10z"/>
<path d="M560 1420 c0 -5 5 -10 11 -10 5 0 7 5 4 10 -3 6 -8 10 -11 10 -2 0
-4 -4 -4 -10z"/>
<path d="M790 1410 c8 -5 20 -10 25 -10 6 0 3 5 -5 10 -8 5 -19 10 -25 10 -5
0 -3 -5 5 -10z"/>
<path d="M873 1395 c0 -8 4 -12 9 -9 5 3 6 10 3 15 -9 13 -12 11 -12 -6z"/>
<path d="M2045 1394 c-17 -12 -18 -16 -5 -24 9 -5 -2 -7 -31 -4 -24 2 -37 2
-29 -2 38 -14 67 -27 93 -40 21 -10 34 -11 48 -4 29 16 24 33 -8 25 -16 -4
-25 -3 -21 0 6 6 -17 66 -25 65 -1 0 -11 -7 -22 -16z"/>
<path d="M885 1370 c-8 -13 5 -13 25 0 13 8 13 10 -2 10 -9 0 -20 -4 -23 -10z"/>
<path d="M8315 1370 c3 -5 8 -10 11 -10 2 0 4 5 4 10 0 6 -5 10 -11 10 -5 0
-7 -4 -4 -10z"/>
<path d="M2900 1359 c0 -5 5 -7 10 -4 6 3 10 8 10 11 0 2 -4 4 -10 4 -5 0 -10
-5 -10 -11z"/>
<path d="M1855 1340 c4 -6 11 -8 16 -5 14 9 11 15 -7 15 -8 0 -12 -5 -9 -10z"/>
<path d="M590 1310 c0 -5 4 -10 9 -10 6 0 13 5 16 10 3 6 -1 10 -9 10 -9 0
-16 -4 -16 -10z"/>
<path d="M990 1310 c-12 -8 -10 -10 8 -10 13 0 20 4 17 10 -7 12 -6 12 -25 0z"/>
<path d="M780 1299 c0 -5 5 -7 10 -4 6 3 10 8 10 11 0 2 -4 4 -10 4 -5 0 -10
-5 -10 -11z"/>
<path d="M500 1280 c-8 -5 -13 -10 -10 -11 30 -6 52 -4 60 6 12 14 -29 18 -50
5z"/>
<path d="M565 1260 c-3 -5 3 -10 15 -10 12 0 18 5 15 10 -3 6 -10 10 -15 10
-5 0 -12 -4 -15 -10z"/>
<path d="M1705 1260 c3 -5 11 -10 16 -10 6 0 7 5 4 10 -3 6 -11 10 -16 10 -6
0 -7 -4 -4 -10z"/>
<path d="M420 1236 c0 -2 9 -6 20 -9 11 -3 18 -1 14 4 -5 9 -34 13 -34 5z"/>
<path d="M614 1226 c-9 -10 -8 -15 5 -23 13 -8 16 -6 17 13 2 27 -5 30 -22 10z"/>
<path d="M3378 1218 c7 -9 11 -25 10 -37 -2 -15 7 -28 30 -42 26 -17 31 -18
26 -5 -3 9 -11 16 -17 16 -6 0 -2 6 8 14 18 13 18 14 -9 9 -26 -5 -27 -4 -15
15 15 24 14 27 -21 37 -21 7 -23 6 -12 -7z"/>
<path d="M315 1210 c-3 -5 3 -10 14 -10 12 0 21 5 21 10 0 6 -6 10 -14 10 -8
0 -18 -4 -21 -10z"/>
<path d="M593 1183 c18 -21 77 -36 102 -27 15 6 28 44 15 44 -5 0 -10 -4 -12
-10 -6 -17 -71 -19 -97 -2 -26 16 -26 16 -8 -5z"/>
<path d="M830 1169 c0 -11 44 -19 53 -10 5 5 -5 11 -22 13 -17 3 -31 1 -31 -3z"/>
<path d="M1126 1163 c-6 -14 -5 -15 5 -6 7 7 10 15 7 18 -3 3 -9 -2 -12 -12z"/>
<path d="M8330 1170 c0 -5 5 -10 10 -10 6 0 10 5 10 10 0 6 -4 10 -10 10 -5 0
-10 -4 -10 -10z"/>
<path d="M7960 1030 c0 -5 5 -10 11 -10 5 0 7 5 4 10 -3 6 -8 10 -11 10 -2 0
-4 -4 -4 -10z"/>
<path d="M7991 1024 c0 -11 3 -14 6 -6 3 7 2 16 -1 19 -3 4 -6 -2 -5 -13z"/>
<path d="M6965 1000 c-3 -5 -1 -10 4 -10 6 0 11 5 11 10 0 6 -2 10 -4 10 -3 0
-8 -4 -11 -10z"/>
<path d="M8080 960 c0 -5 5 -10 10 -10 6 0 10 5 10 10 0 6 -4 10 -10 10 -5 0
-10 -4 -10 -10z"/>
<path d="M4791 948 c-1 -10 -6 -18 -12 -18 -5 0 -7 5 -4 10 3 6 2 10 -4 10
-13 0 -32 -35 -24 -44 11 -11 24 -6 17 6 -5 8 -2 9 10 5 18 -7 32 13 23 35 -4
8 -6 6 -6 -4z"/>
<path d="M4603 940 c4 -8 10 -23 13 -32 7 -21 13 -22 34 -7 13 9 12 10 -2 5
-11 -3 -18 0 -18 8 0 7 -7 20 -17 27 -14 12 -15 12 -10 -1z"/>
<path d="M8250 920 c0 -5 5 -10 11 -10 5 0 7 5 4 10 -3 6 -8 10 -11 10 -2 0
-4 -4 -4 -10z"/>
<path d="M4723 897 c4 -11 2 -14 -9 -10 -7 3 -14 1 -14 -4 0 -5 9 -9 20 -10
22 -2 27 21 8 33 -7 5 -9 2 -5 -9z"/>
<path d="M8320 900 c0 -7 24 -20 36 -20 13 0 1 19 -16 23 -11 3 -20 2 -20 -3z"/>
<path d="M6960 859 c0 -5 5 -7 10 -4 6 3 10 8 10 11 0 2 -4 4 -10 4 -5 0 -10
-5 -10 -11z"/>
<path d="M8258 858 c-7 -18 28 -33 38 -17 3 5 -1 9 -10 9 -8 0 -16 5 -18 12
-3 8 -6 6 -10 -4z"/>
<path d="M8348 862 c-32 -4 -43 -26 -22 -43 13 -11 15 -10 12 7 -2 16 2 18 25
16 15 -2 27 1 27 7 0 14 -11 17 -42 13z"/>
<path d="M3618 823 c7 -3 16 -2 19 1 4 3 -2 6 -13 5 -11 0 -14 -3 -6 -6z"/>
<path d="M535 810 c3 -5 10 -10 16 -10 5 0 9 5 9 10 0 6 -7 10 -16 10 -8 0
-12 -4 -9 -10z"/>
<path d="M6700 800 c-6 -11 -7 -20 -3 -20 5 0 14 9 21 20 7 11 8 20 2 20 -5 0
-14 -9 -20 -20z"/>
<path d="M585 800 c-19 -8 -19 -9 3 -9 13 -1 32 -6 43 -11 15 -9 19 -7 19 5 0
9 -4 13 -10 10 -5 -3 -10 -1 -10 4 0 13 -17 13 -45 1z"/>
<path d="M500 769 c0 -5 5 -7 10 -4 6 3 10 8 10 11 0 2 -4 4 -10 4 -5 0 -10
-5 -10 -11z"/>
<path d="M560 771 c0 -5 5 -13 10 -16 6 -3 10 -2 10 4 0 5 -4 13 -10 16 -5 3
-10 2 -10 -4z"/>
<path d="M660 769 c0 -5 5 -7 10 -4 6 3 10 8 10 11 0 2 -4 4 -10 4 -5 0 -10
-5 -10 -11z"/>
<path d="M6660 760 c0 -11 4 -20 8 -20 4 0 8 9 9 20 1 11 -2 20 -8 20 -5 0 -9
-9 -9 -20z"/>
<path d="M613 755 c-3 -9 -3 -19 1 -22 3 -4 6 -1 6 5 0 7 7 12 16 12 8 0 12 5
9 10 -9 15 -25 12 -32 -5z"/>
<path d="M245 750 c-8 -13 5 -13 25 0 13 8 13 10 -2 10 -9 0 -20 -4 -23 -10z"/>
<path d="M385 750 c3 -5 12 -7 20 -3 21 7 19 13 -6 13 -11 0 -18 -4 -14 -10z"/>
<path d="M300 742 c0 -28 72 -49 91 -26 11 13 9 14 -17 9 -22 -5 -25 -4 -14 4
13 9 11 11 -7 11 -12 0 -28 3 -37 6 -9 3 -16 2 -16 -4z"/>
<path d="M516 735 c4 -8 10 -15 15 -15 4 0 6 7 3 15 -4 8 -10 15 -15 15 -4 0
-6 -7 -3 -15z"/>
<path d="M415 730 c-3 -5 -2 -10 4 -10 5 0 13 5 16 10 3 6 2 10 -4 10 -5 0
-13 -4 -16 -10z"/>
<path d="M468 733 c-9 -2 -19 -11 -22 -20 -5 -13 -4 -14 8 -4 8 7 20 10 26 6
5 -3 10 1 10 9 0 9 -1 15 -2 15 -2 -1 -10 -3 -20 -6z"/>
<path d="M3165 730 c3 -5 8 -10 11 -10 2 0 4 5 4 10 0 6 -5 10 -11 10 -5 0 -7
-4 -4 -10z"/>
<path d="M140 721 c0 -6 4 -12 8 -15 5 -3 9 1 9 9 0 8 -4 15 -9 15 -4 0 -8 -4
-8 -9z"/>
<path d="M228 713 c6 -2 18 -2 25 0 6 3 1 5 -13 5 -14 0 -19 -2 -12 -5z"/>
<path d="M491 696 c-7 -8 -8 -17 -3 -20 6 -3 13 1 16 10 9 23 2 28 -13 10z"/>
<path d="M758 673 c7 -3 16 -2 19 1 4 3 -2 6 -13 5 -11 0 -14 -3 -6 -6z"/>
<path d="M781 661 c-14 -4 -26 -12 -29 -20 -3 -9 4 -9 27 3 17 9 31 19 31 21
0 3 -1 5 -2 4 -2 -1 -14 -4 -27 -8z"/>
<path d="M380 640 c0 -5 5 -10 10 -10 6 0 10 5 10 10 0 6 -4 10 -10 10 -5 0
-10 -4 -10 -10z"/>
<path d="M7920 629 c0 -5 5 -7 10 -4 6 3 10 8 10 11 0 2 -4 4 -10 4 -5 0 -10
-5 -10 -11z"/>
<path d="M480 611 c0 -5 7 -11 14 -14 10 -4 13 -1 9 9 -6 15 -23 19 -23 5z"/>
<path d="M430 600 c0 -5 5 -10 10 -10 6 0 10 -9 10 -20 0 -23 15 -27 23 -6 3
8 -2 21 -12 30 -20 18 -31 20 -31 6z"/>
<path d="M518 573 c7 -3 16 -2 19 1 4 3 -2 6 -13 5 -11 0 -14 -3 -6 -6z"/>
<path d="M619 565 c-11 -10 2 -45 17 -45 8 0 14 4 14 9 0 5 6 11 13 14 6 2 2
2 -10 1 -14 -3 -23 2 -25 12 -2 9 -6 13 -9 9z"/>
<path d="M7170 556 c0 -2 7 -6 15 -10 8 -3 15 -1 15 4 0 6 -7 10 -15 10 -8 0
-15 -2 -15 -4z"/>
<path d="M0 541 c0 -6 4 -13 10 -16 6 -3 7 1 4 9 -7 18 -14 21 -14 7z"/>
<path d="M40 524 c0 -8 5 -12 10 -9 6 3 10 10 10 16 0 5 -4 9 -10 9 -5 0 -10
-7 -10 -16z"/>
<path d="M425 530 c-3 -5 -1 -10 4 -10 6 0 11 5 11 10 0 6 -2 10 -4 10 -3 0
-8 -4 -11 -10z"/>
<path d="M140 499 c0 -5 5 -7 10 -4 6 3 10 8 10 11 0 2 -4 4 -10 4 -5 0 -10
-5 -10 -11z"/>
<path d="M405 500 c-3 -5 -1 -10 4 -10 6 0 11 5 11 10 0 6 -2 10 -4 10 -3 0
-8 -4 -11 -10z"/>
<path d="M3675 500 c3 -5 8 -10 11 -10 2 0 4 5 4 10 0 6 -5 10 -11 10 -5 0 -7
-4 -4 -10z"/>
<path d="M170 490 c0 -5 5 -10 10 -10 7 0 7 -7 0 -22 -11 -23 -11 -23 9 1 26
29 26 41 1 41 -11 0 -20 -4 -20 -10z"/>
<path d="M365 480 c-3 -5 -1 -10 4 -10 6 0 11 5 11 10 0 6 -2 10 -4 10 -3 0
-8 -4 -11 -10z"/>
<path d="M5270 474 c0 -8 5 -12 10 -9 6 4 8 11 5 16 -9 14 -15 11 -15 -7z"/>
<path d="M250 460 c-8 -16 -8 -18 4 -14 17 6 30 34 16 34 -5 0 -14 -9 -20 -20z"/>
<path d="M8105 471 c-3 -5 -1 -12 5 -16 5 -3 10 1 10 9 0 18 -6 21 -15 7z"/>
<path d="M210 459 c0 -5 5 -7 10 -4 6 3 10 8 10 11 0 2 -4 4 -10 4 -5 0 -10
-5 -10 -11z"/>
<path d="M118 453 c6 -2 18 -2 25 0 6 3 1 5 -13 5 -14 0 -19 -2 -12 -5z"/>
<path d="M200 420 c0 -5 5 -10 10 -10 6 0 10 5 10 10 0 6 -4 10 -10 10 -5 0
-10 -4 -10 -10z"/>
<path d="M5002 418 c-14 -14 -16 -28 -3 -28 9 0 24 30 18 36 -2 2 -9 -2 -15
-8z"/>
<path d="M5531 404 c0 -11 3 -14 6 -6 3 7 2 16 -1 19 -3 4 -6 -2 -5 -13z"/>
<path d="M3836 393 c-8 -20 -3 -25 24 -21 21 3 21 3 1 20 -17 15 -20 15 -25 1z"/>
<path d="M3890 405 c0 -18 19 -40 26 -32 4 4 0 15 -9 24 -9 10 -17 13 -17 8z"/>
<path d="M1185 390 c3 -5 8 -10 11 -10 2 0 4 5 4 10 0 6 -5 10 -11 10 -5 0 -7
-4 -4 -10z"/>
<path d="M3695 390 c3 -5 12 -7 20 -3 21 7 19 13 -6 13 -11 0 -18 -4 -14 -10z"/>
<path d="M198 383 c7 -3 16 -2 19 1 4 3 -2 6 -13 5 -11 0 -14 -3 -6 -6z"/>
<path d="M3595 379 c-4 -6 -5 -12 -2 -15 2 -3 7 2 10 11 7 17 1 20 -8 4z"/>
<path d="M8170 380 c0 -5 5 -10 10 -10 6 0 10 5 10 10 0 6 -4 10 -10 10 -5 0
-10 -4 -10 -10z"/>
<path d="M1043 373 c-10 -3 -10 -8 1 -19 20 -19 26 -18 26 6 0 20 -5 23 -27
13z"/>
<path d="M1205 356 c-14 -13 -25 -26 -25 -30 0 -13 28 -5 34 9 3 9 15 19 27
24 19 6 20 9 6 14 -10 4 -26 -3 -42 -17z"/>
<path d="M3670 355 c0 -8 4 -15 8 -15 5 0 9 7 9 15 0 8 -4 15 -9 15 -4 0 -8
-7 -8 -15z"/>
<path d="M5136 353 c-6 -14 -5 -15 5 -6 7 7 10 15 7 18 -3 3 -9 -2 -12 -12z"/>
<path d="M1120 350 c0 -5 5 -10 10 -10 6 0 10 5 10 10 0 6 -4 10 -10 10 -5 0
-10 -4 -10 -10z"/>
<path d="M5570 350 c0 -5 5 -10 11 -10 5 0 7 5 4 10 -3 6 -8 10 -11 10 -2 0
-4 -4 -4 -10z"/>
<path d="M944 334 c-15 -12 -16 -15 -2 -10 9 3 19 0 22 -7 3 -9 5 -9 5 1 1 6
12 12 25 12 14 0 28 5 31 10 10 17 -59 11 -81 -6z"/>
<path d="M3400 340 c0 -5 5 -10 10 -10 6 0 10 5 10 10 0 6 -4 10 -10 10 -5 0
-10 -4 -10 -10z"/>
<path d="M4980 336 c0 -6 11 -11 25 -11 14 0 24 5 22 10 -5 14 -47 15 -47 1z"/>
<path d="M8015 340 c-18 -8 -17 -9 8 -9 16 -1 26 3 22 9 -3 6 -7 10 -8 9 -1 0
-11 -4 -22 -9z"/>
<path d="M1075 329 c-4 -6 -4 -13 -1 -16 3 -4 6 -1 6 6 0 8 6 11 16 7 8 -3 12
-2 9 4 -8 13 -22 13 -30 -1z"/>
<path d="M3770 330 c0 -5 5 -10 10 -10 6 0 10 5 10 10 0 6 -4 10 -10 10 -5 0
-10 -4 -10 -10z"/>
<path d="M5448 333 c7 -3 16 -2 19 1 4 3 -2 6 -13 5 -11 0 -14 -3 -6 -6z"/>
<path d="M1470 320 c0 -5 5 -10 10 -10 6 0 10 5 10 10 0 6 -4 10 -10 10 -5 0
-10 -4 -10 -10z"/>
<path d="M3533 320 c-13 -5 -23 -12 -23 -15 0 -9 16 -5 36 10 22 16 19 18 -13
5z"/>
<path d="M1030 309 c0 -5 5 -7 10 -4 6 3 10 8 10 11 0 2 -4 4 -10 4 -5 0 -10
-5 -10 -11z"/>
<path d="M3595 310 c3 -5 8 -10 11 -10 2 0 4 5 4 10 0 6 -5 10 -11 10 -5 0 -7
-4 -4 -10z"/>
<path d="M3660 309 c0 -5 5 -7 10 -4 6 3 10 8 10 11 0 2 -4 4 -10 4 -5 0 -10
-5 -10 -11z"/>
<path d="M1170 290 c0 -11 4 -20 9 -20 5 0 7 9 4 20 -3 11 -7 20 -9 20 -2 0
-4 -9 -4 -20z"/>
<path d="M1210 300 c0 -5 12 -10 28 -10 21 0 24 2 12 10 -20 13 -40 13 -40 0z"/>
<path d="M5105 300 c-3 -5 -1 -10 4 -10 6 0 11 5 11 10 0 6 -2 10 -4 10 -3 0
-8 -4 -11 -10z"/>
<path d="M1355 280 c-3 -6 1 -7 9 -4 18 7 21 14 7 14 -6 0 -13 -4 -16 -10z"/>
<path d="M1445 279 c-11 -17 1 -21 15 -4 8 9 8 15 2 15 -6 0 -14 -5 -17 -11z"/>
<path d="M3514 270 c1 -8 10 -16 21 -17 15 -1 15 0 3 3 -9 3 -19 11 -21 17 -2
7 -3 5 -3 -3z"/>
<path d="M158 273 c7 -3 16 -2 19 1 4 3 -2 6 -13 5 -11 0 -14 -3 -6 -6z"/>
<path d="M1080 271 c0 -5 7 -11 15 -15 8 -3 15 -1 15 3 0 5 -7 11 -15 15 -8 3
-15 1 -15 -3z"/>
<path d="M3477 265 c3 -8 9 -12 14 -9 12 7 11 11 -5 17 -10 4 -13 1 -9 -8z"/>
<path d="M3576 272 c-2 -4 4 -8 14 -8 10 0 16 4 14 8 -3 4 -9 8 -14 8 -5 0
-11 -4 -14 -8z"/>
<path d="M1263 253 c9 -2 23 -2 30 0 6 3 -1 5 -18 5 -16 0 -22 -2 -12 -5z"/>
<path d="M4615 250 c3 -5 8 -10 11 -10 2 0 4 5 4 10 0 6 -5 10 -11 10 -5 0 -7
-4 -4 -10z"/>
<path d="M1148 243 c7 -3 16 -2 19 1 4 3 -2 6 -13 5 -11 0 -14 -3 -6 -6z"/>
<path d="M865 230 c-3 -5 -1 -10 4 -10 6 0 11 5 11 10 0 6 -2 10 -4 10 -3 0
-8 -4 -11 -10z"/>
<path d="M1281 218 c-14 -23 -14 -23 8 -4 22 20 25 26 13 26 -4 0 -13 -10 -21
-22z"/>
<path d="M1215 220 c-3 -5 -2 -10 4 -10 5 0 13 5 16 10 3 6 2 10 -4 10 -5 0
-13 -4 -16 -10z"/>
<path d="M4910 220 c0 -5 5 -10 10 -10 6 0 10 5 10 10 0 6 -4 10 -10 10 -5 0
-10 -4 -10 -10z"/>
<path d="M4950 209 c0 -5 9 -9 20 -9 11 0 20 2 20 4 0 2 -9 6 -20 9 -11 3 -20
1 -20 -4z"/>
<path d="M720 200 c0 -5 5 -10 11 -10 5 0 7 5 4 10 -3 6 -8 10 -11 10 -2 0 -4
-4 -4 -10z"/>
<path d="M3466 192 c-3 -6 -1 -14 5 -17 15 -10 25 3 12 16 -7 7 -13 7 -17 1z"/>
<path d="M2108 183 c7 -3 16 -2 19 1 4 3 -2 6 -13 5 -11 0 -14 -3 -6 -6z"/>
<path d="M3420 179 c0 -5 5 -7 10 -4 6 3 10 8 10 11 0 2 -4 4 -10 4 -5 0 -10
-5 -10 -11z"/>
<path d="M3550 179 c0 -5 5 -7 10 -4 6 3 10 8 10 11 0 2 -4 4 -10 4 -5 0 -10
-5 -10 -11z"/>
<path d="M3590 170 c-9 -6 -10 -10 -3 -10 6 0 15 5 18 10 8 12 4 12 -15 0z"/>
<path d="M8458 163 c7 -3 16 -2 19 1 4 3 -2 6 -13 5 -11 0 -14 -3 -6 -6z"/>
<path d="M3510 138 c0 -11 22 -10 40 2 11 8 9 9 -12 8 -16 -1 -28 -6 -28 -10z"/>
<path d="M5521 134 c0 -11 3 -14 6 -6 3 7 2 16 -1 19 -3 4 -6 -2 -5 -13z"/>
<path d="M5595 140 c-8 -13 -1 -24 14 -19 6 3 7 10 2 18 -6 10 -10 10 -16 1z"/>
<path d="M3073 133 c9 -2 23 -2 30 0 6 3 -1 5 -18 5 -16 0 -22 -2 -12 -5z"/>
<path d="M5543 126 c3 -7 0 -20 -6 -27 -10 -11 -9 -11 5 0 15 11 15 41 1 41
-3 0 -3 -6 0 -14z"/>
<path d="M7710 108 c0 -19 2 -20 10 -8 13 19 13 30 0 30 -5 0 -10 -10 -10 -22z"/>
<path d="M536 102 c-3 -6 3 -12 14 -15 12 -3 18 -11 15 -19 -4 -10 4 -14 30
-15 28 -1 33 2 25 11 -5 7 -6 17 -2 21 4 5 -1 5 -10 2 -12 -4 -18 -1 -18 8 0
8 -4 15 -10 15 -5 0 -10 -5 -10 -11 0 -8 -4 -8 -14 0 -8 7 -17 8 -20 3z"/>
<path d="M4730 60 c0 -5 5 -10 10 -10 6 0 10 5 10 10 0 6 -4 10 -10 10 -5 0
-10 -4 -10 -10z"/>
<path d="M7535 30 c3 -5 8 -10 11 -10 2 0 4 5 4 10 0 6 -5 10 -11 10 -5 0 -7
-4 -4 -10z"/>
<path d="M658 23 c7 -3 16 -2 19 1 4 3 -2 6 -13 5 -11 0 -14 -3 -6 -6z"/>
</g>
</svg>
